<!DOCTYPE svg PUBLIC "-//W3C//DTD SVG 1.1//EN" "http://www.w3.org/Graphics/SVG/1.1/DTD/svg11.dtd">
<!-- Uploaded to: SVG Repo, www.svgrepo.com, Transformed by: SVG Repo Mixer Tools -->
<svg fill="#000000" height="800px" width="800px" version="1.1" id="Layer_1" xmlns="http://www.w3.org/2000/svg" xmlns:xlink="http://www.w3.org/1999/xlink" viewBox="-51.2 -51.2 614.40 614.40" xml:space="preserve">
<g id="SVGRepo_bgCarrier" stroke-width="0">
<path transform="translate(-51.2, -51.2), scale(19.2)" d="M16,26.859178584461148C19.44262163074975,27.638736126972944,23.253753344948827,28.16215714407848,26.162454819286758,26.162454819286758C29.480315791140903,23.881459551368238,32.3728537322434,19.984682444456222,31.79540532964625,16C31.23990701784659,12.166784147297404,26.472491769281604,10.997135717793094,23.589844125468947,8.410155874531053C20.99834671306155,6.084463525640086,19.445481456101547,2.3280500326770204,16,1.8246999796676011C12.248930663873105,1.2767066227920691,8.647757261838466,3.296043079513426,5.813162117642486,5.813162117642483C2.778852930074315,8.507627124130792,-0.8636722090369668,12.043196174700727,0.036815106280538856,15.999999999999996C0.9214528537328286,19.887159722943064,6.2940324388306035,20.167514042670856,9.590213165520996,22.409786834479C11.825794908520596,23.93057241386203,13.36294930671409,26.2620369353252,16,26.859178584461148" fill="#ffffff" strokewidth="0"/>
</g>
<g id="SVGRepo_tracerCarrier" stroke-linecap="round" stroke-linejoin="round"/>
<g id="SVGRepo_iconCarrier"> <g> <g> <path d="M244.271,173.982l-37.72-20.689c-16.282-8.907-37.549-30.203-46.447-46.471l-20.636-37.744 c-3.227-5.923-12.964-5.931-16.191-0.008l-20.645,37.73c-8.889,16.268-30.156,37.534-46.429,46.437l-37.729,20.63 c-2.966,1.618-4.805,4.723-4.805,8.099s1.839,6.482,4.805,8.1l37.729,20.636c16.264,8.894,37.531,30.161,46.438,46.438 l20.636,37.729c1.614,2.962,4.724,4.801,8.096,4.801s6.482-1.839,8.096-4.801l20.636-37.269 c8.907-16.268,30.174-39.054,46.447-45.978h-0.009l37.729-21.096c2.966-1.618,4.805-4.954,4.805-8.33 C249.076,178.821,247.237,175.6,244.271,173.982z M197.689,195.468c0,0,0,0-0.009,0c-19.491,9.232-43.111,33.803-53.767,53.294 l-12.54,22.68l-12.54-23.042c-10.656-19.5-34.285-43.18-53.776-53.836l-22.917-12.566l22.917-12.547 c19.5-10.665,43.129-34.297,53.776-53.788l12.54-22.926l12.54,22.916c10.647,19.491,34.267,43.11,53.776,53.784l22.917,13.013 L197.689,195.468z"/> </g> </g> <g> <g> <path d="M493.527,109.245l-37.72-20.631c-16.282-8.907-37.549-30.174-46.447-46.443L388.723,4.442 c-3.227-5.923-12.964-5.923-16.191,0l-20.645,37.734c-8.889,16.268-30.156,37.535-46.429,46.438l-37.729,20.631 c-2.966,1.618-4.805,4.724-4.805,8.1c0,3.376,1.839,6.482,4.805,8.1l37.729,20.636c16.264,8.894,37.531,30.161,46.438,46.438 l20.636,37.729c1.614,2.961,4.724,4.801,8.096,4.801c3.372,0,6.482-1.839,8.096-4.801l20.636-37.269 c8.907-16.268,30.174-39.054,46.447-45.978h-0.009l37.729-21.096c2.966-1.618,4.805-4.954,4.805-8.33 C498.332,114.199,496.492,110.864,493.527,109.245z M446.944,130.846c0,0,0,0-0.009,0c-19.491,9.232-43.111,33.803-53.767,53.294 l-12.54,22.68l-12.54-23.042c-10.656-19.5-34.285-43.18-53.776-53.836l-22.917-12.566l22.917-12.547 c19.5-10.665,43.129-34.297,53.776-53.788l12.54-22.926l12.54,22.916c10.647,19.491,34.267,43.11,53.776,53.784l22.917,13.013 L446.944,130.846z"/> </g> </g> <g> <g> <path d="M438.136,386.196l-37.72-20.631c-16.282-8.907-37.549-30.174-46.447-46.443l-20.636-37.729 c-3.227-5.923-12.964-5.923-16.191,0l-20.645,37.734c-8.889,16.268-30.156,37.535-46.429,46.438l-37.729,20.631 c-2.966,1.618-4.805,4.724-4.805,8.1c0,3.376,1.839,6.482,4.805,8.1l37.729,20.636c16.264,8.894,37.531,30.161,46.438,46.438 l20.636,37.729c1.614,2.962,4.724,4.801,8.096,4.801c3.372,0,6.482-1.839,8.096-4.801l20.636-37.269 c8.907-16.268,30.174-39.054,46.447-45.978h-0.009l37.729-21.096c2.966-1.618,4.805-4.954,4.805-8.33 C442.942,391.15,441.102,387.814,438.136,386.196z M391.554,407.797c0,0,0,0-0.009,0c-19.491,9.232-43.111,33.803-53.767,53.294 l-12.54,22.68l-12.54-23.042c-10.656-19.5-34.285-43.18-53.776-53.836l-22.917-12.566l22.917-12.547 c19.5-10.665,43.129-34.297,53.776-53.788l12.54-22.926l12.54,22.916c10.647,19.491,34.267,43.11,53.776,53.784l22.917,13.013 L391.554,407.797z"/> </g> </g> </g>
</svg>